<svg width="24" height="24" viewBox="0 0 24 24" fill="none" xmlns="http://www.w3.org/2000/svg">
<path d="M5.15 18.85C4.46667 18.05 3.93734 17.1543 3.562 16.163C3.18667 15.1717 2.99934 14.1173 3 13C3 10.5 3.875 8.375 5.625 6.625C7.375 4.875 9.5 4 12 4H12.2L10.6 2.4L12 1L16 5L12 9L10.575 7.575L12.15 6H12C10.0667 6 8.41667 6.68333 7.05 8.05C5.68334 9.41667 5 11.0667 5 13C5 13.85 5.13734 14.65 5.412 15.4C5.68667 16.15 6.07433 16.825 6.575 17.425L5.15 18.85ZM11 18.5C11 18.1167 10.871 17.7377 10.613 17.363C10.355 16.9883 10.0673 16.5967 9.75 16.188C9.43267 15.7793 9.14533 15.3543 8.888 14.913C8.63067 14.4717 8.50134 14.0007 8.5 13.5C8.5 12.5333 8.84167 11.7083 9.525 11.025C10.2083 10.3417 11.0333 10 12 10C12.9667 10 13.7917 10.3417 14.475 11.025C15.1583 11.7083 15.5 12.5333 15.5 13.5C15.5 14 15.371 14.471 15.113 14.913C14.855 15.355 14.5673 15.7797 14.25 16.187C13.9327 16.5943 13.6453 16.986 13.388 17.362C13.1307 17.738 13.0013 18.1173 13 18.5H11ZM11 21V19.5H13V21H11ZM18.85 18.85L17.425 17.425C17.925 16.825 18.3127 16.15 18.588 15.4C18.8633 14.65 19.0007 13.85 19 13C19 11.9 18.771 10.8793 18.313 9.938C17.855 8.99667 17.2257 8.209 16.425 7.575L17.85 6.15C18.8167 6.98333 19.5833 7.98767 20.15 9.163C20.7167 10.3383 21 11.6173 21 13C21 14.1167 20.8127 15.171 20.438 16.163C20.0633 17.155 19.534 18.0507 18.85 18.85Z" fill="#0088FF"/>
</svg>
