<svg width="124" height="115" viewBox="0 0 124 115" fill="none" xmlns="http://www.w3.org/2000/svg">
<path d="M61.3926 0.5C81.9318 0.500228 98.5781 17.0794 98.5781 37.5264C98.5781 39.0399 98.4858 40.532 98.3086 41.998L98.2607 42.3975L98.6406 42.5303C113.121 47.5945 123.5 61.3286 123.5 77.4736C123.5 97.9207 106.853 114.5 86.3135 114.5C77.1695 114.5 68.7981 111.214 62.3223 105.764L62 105.493L61.6777 105.764C55.2019 111.214 46.8305 114.5 37.6865 114.5C17.1471 114.5 0.5 97.9207 0.5 77.4736C0.500022 61.7581 10.334 48.3274 24.2129 42.9531L24.5801 42.8105L24.5283 42.4209C24.316 40.8196 24.2061 39.1858 24.2061 37.5264C24.2061 17.0793 40.8532 0.5 61.3926 0.5ZM48.1279 77.4736C48.1279 88.2502 52.6317 97.9779 59.8633 104.896C53.7974 109.766 46.0857 112.685 37.6865 112.685C18.1542 112.685 2.32324 96.9179 2.32324 77.4736C2.32326 62.8808 11.2395 50.3584 23.9473 45.0186C26.578 58.1282 35.9763 68.8 48.3584 73.2773C48.2064 74.6554 48.1279 76.0555 48.1279 77.4736ZM73.0488 77.4736C73.0488 87.5406 68.804 96.618 62 103.036C55.196 96.618 50.9512 87.5406 50.9512 77.4736C50.9512 76.3547 51.0059 75.2483 51.1084 74.1562C54.3809 75.0654 57.8302 75.5527 61.3926 75.5527C65.3868 75.5527 69.2377 74.9391 72.8574 73.8057C72.9829 75.0113 73.0488 76.2349 73.0488 77.4736ZM121.677 77.4736C121.677 96.9179 105.846 112.685 86.3135 112.685C77.9136 112.685 70.1999 109.768 64.1338 104.897C71.3666 97.9788 75.8721 88.2512 75.8721 77.4736C75.8721 75.903 75.7748 74.3548 75.5889 72.834C87.533 68.0673 96.497 57.4679 98.9229 44.5684C112.228 49.6261 121.677 62.4522 121.677 77.4736ZM61.6621 50.8555C55.8287 56.2154 51.7597 63.4537 50.4258 71.6084L50.3555 72.041L50.7744 72.168C54.1339 73.1878 57.6995 73.7373 61.3926 73.7373C65.517 73.7373 69.4819 73.0517 73.1787 71.791L73.583 71.6533L73.5098 71.2324C72.1137 63.2314 68.0814 56.1328 62.3379 50.8555L62 50.5439L61.6621 50.8555ZM62 51.9082C67.3053 56.9122 71.0511 63.534 72.4453 70.9795C68.9683 72.1178 65.2536 72.7373 61.3926 72.7373C57.9537 72.7373 54.6305 72.246 51.4883 71.335C52.8285 63.7446 56.6103 56.9917 62 51.9082ZM37.6865 41.2627C33.5619 41.2627 29.5965 41.9472 25.8994 43.208L25.4951 43.3457L25.5684 43.7676C27.8187 56.6648 36.9186 67.2173 48.998 71.5781L49.5596 71.7812L49.6611 71.1924C51.0604 63.0384 55.1368 55.7924 60.9609 50.3857L61.3789 49.998L60.9404 49.6348C54.637 44.4079 46.5297 41.2628 37.6865 41.2627ZM86.3135 41.2627C77.4702 41.2628 69.363 44.4078 63.0596 49.6348L62.6201 49.998L63.0381 50.3857C68.7605 55.6978 72.796 62.7849 74.2627 70.7646L74.373 71.3652L74.9404 71.1387C86.5583 66.4907 95.2099 56.0434 97.2793 43.3906L97.3496 42.959L96.9316 42.832C93.5722 41.8123 90.0064 41.2627 86.3135 41.2627ZM37.6865 42.2627C46.0851 42.2628 53.7976 45.1789 59.8633 50.0479C54.2459 55.4216 50.2764 62.4913 48.7832 70.4316C37.4427 66.1209 28.9039 56.166 26.6299 44.0195C30.1078 42.8807 33.8243 42.2627 37.6865 42.2627ZM86.3135 42.2627C89.752 42.2627 93.0749 42.7532 96.2168 43.6641C94.116 55.5637 86.014 65.406 75.1289 69.9795C73.5719 62.2227 69.6465 55.3194 64.1357 50.0479C70.2015 45.1786 77.9146 42.2628 86.3135 42.2627ZM96.7549 37.5264C96.7549 38.6446 96.6983 39.7502 96.5957 40.8418C93.3238 39.933 89.8751 39.4473 86.3135 39.4473C77.0762 39.4473 68.6043 42.7149 62 48.1514C55.3957 42.7149 46.9238 39.4473 37.6865 39.4473C33.6919 39.4473 29.8399 40.0598 26.2197 41.1934C26.0944 39.9881 26.0293 38.7648 26.0293 37.5264C26.0293 18.0821 41.8603 2.31543 61.3926 2.31543C80.9247 2.31566 96.7549 18.0823 96.7549 37.5264ZM49.1279 77.4736C49.1279 75.9598 49.2192 74.467 49.3965 73.001L49.4443 72.6025L49.0654 72.4697C36.6397 68.124 27.2337 57.3929 24.8154 44.2344L24.7041 43.6338L24.1377 43.8604C10.7672 49.2096 1.32326 62.2422 1.32324 77.4736C1.32324 97.4742 17.6059 113.685 37.6865 113.685C46.5299 113.685 54.637 110.539 60.9404 105.312L61.3789 104.948L60.9609 104.561C53.6793 97.8006 49.1279 88.1666 49.1279 77.4736ZM74.0488 77.4736C74.0488 75.9875 73.9579 74.5222 73.7832 73.083L73.71 72.4766L73.1299 72.6689C69.4407 73.89 65.4949 74.5527 61.3926 74.5527C57.7158 74.5527 54.1637 74.0214 50.8105 73.0322L50.2383 72.8633L50.1729 73.457C50.0267 74.776 49.9512 76.1161 49.9512 77.4736C49.9512 87.9997 54.4627 97.4766 61.6621 104.092L62 104.402L62.3379 104.092C69.5373 97.4766 74.0488 87.9997 74.0488 77.4736ZM122.677 77.4736C122.677 61.807 112.686 48.467 98.707 43.4209L98.1455 43.2188L98.0439 43.8066C95.8228 56.7505 86.8534 67.4048 74.8652 72.0469L74.498 72.1885L74.5498 72.5781C74.7622 74.1797 74.8721 75.814 74.8721 77.4736C74.8721 88.1669 70.32 97.8006 63.0381 104.561L62.6201 104.948L63.0596 105.312C69.363 110.539 77.4701 113.685 86.3135 113.685C106.394 113.685 122.677 97.4742 122.677 77.4736ZM97.7549 37.5264C97.7549 17.526 81.473 1.31566 61.3926 1.31543C41.312 1.31543 25.0293 17.5258 25.0293 37.5264C25.0293 39.012 25.1193 40.477 25.2939 41.916L25.3682 42.5225L25.9473 42.3311C29.6367 41.1099 33.5838 40.4473 37.6865 40.4473C46.8302 40.4473 55.202 43.7326 61.6777 49.1826L62 49.4541L62.3223 49.1826C68.798 43.7326 77.1698 40.4473 86.3135 40.4473C89.9901 40.4473 93.5416 40.9787 96.8945 41.9678L97.4668 42.1357L97.5332 41.543C97.6794 40.2242 97.7549 38.884 97.7549 37.5264Z" stroke="#26529B"/>
</svg>
