<svg width="103" height="98" viewBox="0 0 103 98" fill="none" xmlns="http://www.w3.org/2000/svg">
<path d="M77.1825 56.3856C67.65 56.3856 59.655 63.2019 57.605 72.2731C52.7362 70.1719 48.2775 70.7356 44.895 72.2219C42.7938 63.0994 34.7988 56.3856 25.3175 56.3856C14.1963 56.3856 5.125 65.5594 5.125 76.8856C5.125 88.2119 14.1963 97.3856 25.3175 97.3856C35.875 97.3856 44.485 89.0831 45.305 78.5256C47.0475 77.2956 51.6087 74.9894 57.195 78.6281C58.1175 89.1344 66.625 97.3856 77.1825 97.3856C88.3037 97.3856 97.375 88.2119 97.375 76.8856C97.375 65.5594 88.3037 56.3856 77.1825 56.3856ZM25.3175 91.5431C17.3225 91.5431 10.9163 84.9831 10.9163 76.8856C10.9163 68.7881 17.3738 62.2281 25.3175 62.2281C33.3125 62.2281 39.7188 68.7881 39.7188 76.8856C39.7188 84.9831 33.3125 91.5431 25.3175 91.5431ZM77.1825 91.5431C69.1875 91.5431 62.7812 84.9831 62.7812 76.8856C62.7812 68.7881 69.1875 62.2281 77.1825 62.2281C85.1775 62.2281 91.635 68.7881 91.635 76.8856C91.635 84.9831 85.1262 91.5431 77.1825 91.5431ZM102.5 43.5731H0V51.2606H102.5V43.5731ZM69.3412 3.23936C68.2137 0.728106 65.3438 -0.604395 62.6275 0.266855L51.25 4.05936L39.8213 0.266855L39.565 0.215605C36.8488 -0.553145 33.9788 0.881856 32.9538 3.49561L20.5 35.8856H82L69.495 3.49561L69.3412 3.23936Z" fill="#26529B"/>
</svg>
