<svg width="99" height="99" viewBox="0 0 99 99" fill="none" xmlns="http://www.w3.org/2000/svg">
<path d="M96.525 5.54645e-07H32.175C30.8088 0.0009069 29.6991 1.1088 29.7 2.475V24.75H17.325C15.9591 24.7509 14.8491 25.8588 14.85 27.225V49.5H2.475C1.1091 49.5009 -0.00090579 50.6088 5.54645e-07 51.975V96.525C0.0009069 97.8912 1.1088 99.0009 2.475 99H47.025C48.3909 98.9991 49.5009 97.8912 49.5 96.525V84.15H71.775C73.1409 84.1491 74.2509 83.0412 74.25 81.675V69.3H96.525C97.8909 69.2991 99.0009 68.1912 99 66.825V2.475C98.9991 1.1091 97.8912 -0.00090579 96.525 5.54645e-07ZM44.55 81.675V94.05H4.95V54.45H17.325H44.55V81.675ZM69.3 66.825V79.2H49.5V51.975C49.4991 50.6091 48.3912 49.4991 47.025 49.5H19.8V29.7H32.175H69.3V66.825ZM94.05 64.35H74.25V27.225C74.2491 25.8591 73.1412 24.7491 71.775 24.75H34.65V4.95H94.05V64.35Z" fill="#26529B"/>
</svg>
