<svg width="124" height="124" viewBox="0 0 124 124" fill="none" xmlns="http://www.w3.org/2000/svg">
<circle cx="62" cy="62" r="60.5" stroke="#26529B" stroke-width="3"/>
<circle cx="29.9352" cy="39.1" r="3.1" transform="rotate(90 29.9352 39.1)" fill="#26529B"/>
<circle cx="29.7691" cy="54.1" r="3.1" transform="rotate(90 29.7691 54.1)" fill="#26529B"/>
<circle cx="30.1012" cy="69.1" r="3.1" transform="rotate(90 30.1012 69.1)" fill="#26529B"/>
<circle cx="29.9352" cy="84.1" r="3.1" transform="rotate(90 29.9352 84.1)" fill="#26529B"/>
<circle cx="94.4332" cy="69.1" r="3.1" transform="rotate(90 94.4332 69.1)" fill="#26529B"/>
<circle cx="94.2672" cy="84.1" r="3.1" transform="rotate(90 94.2672 84.1)" fill="#26529B"/>
<circle cx="94.2672" cy="39.1" r="3.1" transform="rotate(90 94.2672 39.1)" fill="#26529B"/>
<circle cx="94.1012" cy="54.1" r="3.1" transform="rotate(90 94.1012 54.1)" fill="#26529B"/>
<circle cx="109.433" cy="54.1" r="3.1" transform="rotate(90 109.433 54.1)" fill="#26529B"/>
<circle cx="109.267" cy="69.1" r="3.1" transform="rotate(90 109.267 69.1)" fill="#26529B"/>
<circle cx="15.4332" cy="54.1" r="3.1" transform="rotate(90 15.4332 54.1)" fill="#26529B"/>
<circle cx="15.2672" cy="69.1" r="3.1" transform="rotate(90 15.2672 69.1)" fill="#26529B"/>
<circle cx="45.102" cy="24.1" r="3.1" fill="#26529B"/>
<circle cx="62.102" cy="24.1" r="3.1" fill="#26529B"/>
<circle cx="79.102" cy="24.1" r="3.1" fill="#26529B"/>
<circle cx="45.102" cy="39.1" r="3.1" fill="#26529B"/>
<circle cx="62.102" cy="39.1" r="3.1" fill="#26529B"/>
<circle cx="79.102" cy="39.1" r="3.1" fill="#26529B"/>
<circle cx="45.102" cy="54.1" r="3.1" fill="#26529B"/>
<circle cx="62.102" cy="54.1" r="3.1" fill="#26529B"/>
<circle cx="79.102" cy="54.1" r="3.1" fill="#26529B"/>
<circle cx="45.102" cy="69.1" r="3.1" fill="#26529B"/>
<circle cx="62.102" cy="69.1" r="3.1" fill="#26529B"/>
<circle cx="79.102" cy="69.1" r="3.1" fill="#26529B"/>
<circle cx="45.102" cy="84.1" r="3.1" fill="#26529B"/>
<circle cx="62.102" cy="84.1" r="3.1" fill="#26529B"/>
<circle cx="79.102" cy="84.1" r="3.1" fill="#26529B"/>
<circle cx="45.102" cy="99.1" r="3.1" fill="#26529B"/>
<circle cx="62.102" cy="99.1" r="3.1" fill="#26529B"/>
<circle cx="79.102" cy="99.1" r="3.1" fill="#26529B"/>
</svg>
