<svg width="40" height="38" viewBox="0 0 40 38" fill="none" xmlns="http://www.w3.org/2000/svg">
<path d="M4.47406 29.1883C4.47406 33.7006 8.11859 37.3585 12.6144 37.3585C12.6207 37.3585 12.6271 37.3585 12.6334 37.3585C12.6478 37.3586 12.6622 37.3586 12.6765 37.3585V21.0183C12.6558 21.0181 12.6351 21.018 12.6144 21.018C8.11859 21.018 4.47406 24.676 4.47406 29.1883Z" fill="#26529B"/>
<path d="M12.6765 0H4.47406V9.35521H0V17.4631H4.47406V29.1883C4.47406 24.676 8.11859 21.018 12.6144 21.018C12.6351 21.018 12.6558 21.0181 12.6765 21.0183V0Z" fill="#26529B"/>
<path fill-rule="evenodd" clip-rule="evenodd" d="M12.6765 37.3585C12.6622 37.3586 12.6478 37.3586 12.6334 37.3585C12.6271 37.3585 12.6207 37.3585 12.6144 37.3585H12.6765Z" fill="#26529B"/>
<path fill-rule="evenodd" clip-rule="evenodd" d="M39.9997 22.0528C39.9997 21.7086 39.9785 21.3695 39.9373 21.0366V23.0689C39.9785 22.736 39.9997 22.3969 39.9997 22.0528Z" fill="#26529B"/>
<path d="M30.1421 37.3585H39.9373V23.0689C39.4375 27.1093 35.9968 30.2366 31.8266 30.2366C31.2492 30.2366 30.6857 30.1767 30.1421 30.0626V37.3585Z" fill="#26529B"/>
<path d="M24.527 25.4887C24.527 23.4186 26.203 21.7404 28.2704 21.7404C30.3378 21.7404 32.0138 23.4186 32.0138 25.4887C32.0138 26.8762 31.261 28.0875 30.1421 28.7356V30.0626C30.6857 30.1767 31.2492 30.2366 31.8266 30.2366C35.9968 30.2366 39.4375 27.1093 39.9373 23.0689V21.0366C39.4375 16.9963 35.9968 13.8365 31.8266 13.8365C27.3128 13.8365 23.6536 17.5329 23.6536 22.0528C23.6536 23.3857 23.9718 24.6443 24.5364 25.7563C24.5302 25.668 24.527 25.5787 24.527 25.4887Z" fill="#26529B"/>
<path d="M24.8314 0H16.6035V37.3585H26.1491V28.6124H26.2004C25.2614 27.9872 24.6204 26.9487 24.5364 25.7563C23.9718 24.6443 23.6536 23.3857 23.6536 22.0528C23.6536 17.5329 27.3128 13.8365 31.8266 13.8365H24.8314V0Z" fill="#26529B"/>
</svg>
