<svg width="24" height="24" viewBox="0 0 24 24" fill="none" xmlns="http://www.w3.org/2000/svg">
<path d="M1 21L12 2L23 21H1ZM4.45 19H19.55L12 6L4.45 19ZM12.713 17.713C12.9043 17.521 13 17.2833 13 17C13 16.7167 12.904 16.4793 12.712 16.288C12.52 16.0967 12.2827 16.0007 12 16C11.7173 15.9993 11.48 16.0953 11.288 16.288C11.096 16.4807 11 16.718 11 17C11 17.282 11.096 17.5197 11.288 17.713C11.48 17.9063 11.7173 18.002 12 18C12.2827 17.998 12.5203 17.903 12.713 17.713ZM11 15H13V10H11V15Z" fill="#26529B"/>
</svg>
