<svg width="103" height="110" viewBox="0 0 103 110" fill="none" xmlns="http://www.w3.org/2000/svg">
<path d="M46.335 21.75C47.2972 20.0834 49.7028 20.0834 50.665 21.75L84.0068 79.5C84.9691 81.1667 83.7663 83.25 81.8418 83.25H15.1582C13.2938 83.25 12.1065 81.2947 12.9092 79.6572L12.9932 79.5L46.335 21.75Z" stroke="#26529B" stroke-width="5"/>
<path d="M47.6126 65.4719V62.4269H50.7476V65.4719H47.6126ZM47.6126 60.0719V43.8719H50.7476V60.0719H47.6126Z" fill="#26529B"/>
<path d="M102.452 35.7122L95.2222 28.535C98.0287 25.033 99.3878 20.588 99.0201 16.114C98.6524 11.6399 96.5857 7.47692 93.2451 4.48095C89.9045 1.48499 85.5439 -0.116219 81.0598 0.00657446C76.5758 0.129368 72.3091 1.96683 69.1372 5.14113C65.9653 8.31544 64.1293 12.5853 64.0066 17.0728C63.8839 21.5602 65.4839 25.9242 68.4776 29.2673C71.4712 32.6105 75.6311 34.6787 80.1017 35.0467C84.5724 35.4147 89.014 34.0546 92.5133 31.2459L99.685 38.4231C99.8662 38.6059 100.082 38.751 100.319 38.85C100.557 38.949 100.811 39 101.069 39C101.326 39 101.581 38.949 101.818 38.85C102.056 38.751 102.271 38.6059 102.452 38.4231C102.804 38.0594 103 37.5734 103 37.0676C103 36.5618 102.804 36.0758 102.452 35.7122ZM81.5803 31.2459C78.8822 31.2459 76.2447 30.4452 74.0013 28.9451C71.7579 27.445 70.0094 25.3128 68.9768 22.8182C67.9443 20.3235 67.6742 17.5785 68.2005 14.9302C68.7269 12.282 70.0262 9.84936 71.934 7.94006C73.8419 6.03076 76.2726 4.73051 78.9189 4.20373C81.5652 3.67696 84.3081 3.94732 86.8008 4.98062C89.2936 6.01393 91.4241 7.76377 92.9231 10.0089C94.4221 12.254 95.2222 14.8935 95.2222 17.5937C95.2222 21.2145 93.7849 24.687 91.2266 27.2473C88.6682 29.8076 85.1984 31.2459 81.5803 31.2459Z" fill="#26529B"/>
</svg>
